<?xml version="1.0" encoding="utf-8"?>
<!-- Generator: Adobe Illustrator 22.0.1, SVG Export Plug-In . SVG Version: 6.00 Build 0)  -->
<svg version="1.1" id="Layer_3" xmlns="http://www.w3.org/2000/svg" xmlns:xlink="http://www.w3.org/1999/xlink" x="0px" y="0px"
	 viewBox="0 0 64 64" style="enable-background:new 0 0 64 64;" xml:space="preserve">
<style type="text/css">
	.st0{fill:#FAF5F5;}
	.st1{fill:#63312D;}
	.st2{fill:#F9A287;}
	.st3{fill:#FCB7A4;}
	.st4{fill:#DB785A;}
	.st5{fill:#E0E0E0;}
	.st6{fill:#84DBFF;}
	.st7{fill:#EFC36A;}
	.st8{fill:#F9DD9D;}
	.st9{fill:#EEC26A;}
	.st10{fill:#A9EBFF;}
	.st11{fill:#52BADB;}
	.st12{fill:#FFFFFF;}
	.st13{fill:#F0EEEE;}
	.st14{fill:#BDBDBD;}
	.st15{fill:#E3DFDF;}
	.st16{fill:#FFE8BB;}
	.st17{fill:#FFF2D2;}
	.st18{fill:#D8C18F;}
	.st19{fill:#EAD194;}
	.st20{fill:#BFA064;}
	.st21{fill:#CCCCCC;}
	.st22{fill:#C5F1FF;}
	.st23{fill:#D3A553;}
	.st24{fill:#67C7E5;}
</style>
<g>
	<path class="st6" d="M41.349,43.479v-6.905c0-3.656-2.964-6.62-6.62-6.62h-9.167c-3.656,0-6.62,2.964-6.62,6.62v6.905H41.349z"/>
	<path class="st10" d="M21.183,43.479v-6.905c0-3.656,2.964-6.62,6.62-6.62h-2.241c-3.656,0-6.62,2.964-6.62,6.62v6.905H21.183z"/>
	<circle class="st8" cx="30.049" cy="23.979" r="5.975"/>
	<path class="st16" d="M25.96,23.979c0-2.977,2.183-5.425,5.032-5.88c-0.309-0.049-0.62-0.095-0.943-0.095
		c-3.3,0-5.975,2.675-5.975,5.975c0,3.3,2.675,5.975,5.975,5.975c0.323,0,0.634-0.046,0.943-0.095
		C28.144,29.404,25.96,26.956,25.96,23.979z"/>
	<path class="st1" d="M30.049,30.454c-3.571,0-6.476-2.905-6.476-6.476s2.905-6.475,6.476-6.475s6.476,2.904,6.476,6.475
		S33.62,30.454,30.049,30.454z M30.049,18.504c-3.019,0-5.476,2.456-5.476,5.475c0,3.02,2.457,5.476,5.476,5.476
		s5.476-2.456,5.476-5.476C35.524,20.96,33.068,18.504,30.049,18.504z"/>
	<polygon class="st12" points="30.145,37.078 34.667,29.954 25.624,29.954 	"/>
	<path class="st1" d="M30.146,37.578c-0.171,0-0.331-0.088-0.422-0.232l-4.521-7.124l0.845-0.535l4.099,6.458l4.099-6.458
		l0.845,0.535l-4.521,7.124C30.476,37.49,30.317,37.578,30.146,37.578z"/>
	<path class="st1" d="M41.349,43.979H18.942c-0.276,0-0.5-0.224-0.5-0.5v-6.905c0-3.926,3.194-7.12,7.12-7.12h9.167
		c3.926,0,7.12,3.194,7.12,7.12v6.905C41.849,43.756,41.625,43.979,41.349,43.979z M19.442,42.979h21.407v-6.405
		c0-3.375-2.745-6.12-6.12-6.12h-9.167c-3.375,0-6.12,2.745-6.12,6.12V42.979z"/>
	<path class="st7" d="M33.652,18.003h-3.603c3.3,0,5.975,2.675,5.975,5.975s-2.675,5.975-5.975,5.975h3.603
		c3.3,0,5.975-2.675,5.975-5.975S36.952,18.003,33.652,18.003z"/>
	<path class="st1" d="M33.652,30.454h-3.603c-0.276,0-0.5-0.224-0.5-0.5s0.224-0.5,0.5-0.5c3.019,0,5.476-2.456,5.476-5.476
		s-2.457-5.476-5.476-5.476c-0.276,0-0.5-0.224-0.5-0.5s0.224-0.5,0.5-0.5h3.603c3.571,0,6.476,2.905,6.476,6.476
		S37.223,30.454,33.652,30.454z M33.503,29.454h0.149c3.019,0,5.476-2.456,5.476-5.476s-2.457-5.476-5.476-5.476h-0.149
		c1.814,1.148,3.021,3.174,3.021,5.476S35.317,28.306,33.503,29.454z"/>
	<path class="st11" d="M41.349,36.574v6.905h3.96v-6.905c0-3.656-2.964-6.62-6.62-6.62h-3.96
		C38.385,29.954,41.349,32.918,41.349,36.574z"/>
	<path class="st1" d="M45.309,43.979h-3.96c-0.276,0-0.5-0.224-0.5-0.5v-6.905c0-3.375-2.745-6.12-6.12-6.12
		c-0.276,0-0.5-0.224-0.5-0.5s0.224-0.5,0.5-0.5h3.959c3.926,0,7.12,3.194,7.12,7.12v6.905
		C45.809,43.756,45.585,43.979,45.309,43.979z M41.849,42.979h2.96v-6.405c0-3.375-2.746-6.12-6.12-6.12h-0.324
		c2.085,1.243,3.484,3.521,3.484,6.12V42.979z"/>
	<path class="st1" d="M32,57.208C18.1,57.208,6.792,45.899,6.792,32S18.1,6.792,32,6.792S57.209,18.101,57.209,32
		S45.9,57.208,32,57.208z M32,7.792C18.651,7.792,7.792,18.651,7.792,32S18.651,56.208,32,56.208S56.209,45.349,56.209,32
		S45.349,7.792,32,7.792z"/>
	<path class="st1" d="M31.016,54.479c-0.675-0.029-1.352-0.089-2.01-0.178l0.133-0.99c0.628,0.084,1.274,0.141,1.92,0.168
		L31.016,54.479z M33.033,54.476l-0.046-0.998c0.639-0.029,1.285-0.088,1.921-0.173l0.133,0.99
		C34.377,54.385,33.701,54.445,33.033,54.476z M27.02,53.946c-0.659-0.148-1.314-0.328-1.947-0.533l0.309-0.951
		c0.604,0.196,1.229,0.367,1.858,0.51L27.02,53.946z M37.027,53.936l-0.223-0.975c0.623-0.143,1.248-0.315,1.859-0.514l0.309,0.951
		C38.333,53.606,37.679,53.787,37.027,53.936z M23.183,52.706c-0.623-0.266-1.236-0.561-1.821-0.877l0.476-0.879
		c0.558,0.301,1.142,0.582,1.737,0.836L23.183,52.706z M40.861,52.688l-0.395-0.918c0.591-0.255,1.175-0.537,1.736-0.84l0.475,0.881
		C42.091,52.127,41.48,52.422,40.861,52.688z M19.63,50.798c-0.558-0.367-1.107-0.766-1.634-1.185l0.623-0.783
		c0.503,0.4,1.028,0.781,1.561,1.132L19.63,50.798z M44.407,50.772l-0.552-0.834c0.533-0.353,1.058-0.734,1.559-1.135l0.624,0.781
		C45.514,50.004,44.965,50.403,44.407,50.772z M16.476,48.286c-0.483-0.46-0.953-0.95-1.396-1.455l0.751-0.66
		c0.424,0.483,0.874,0.951,1.336,1.393L16.476,48.286z M47.557,48.256l-0.691-0.723c0.466-0.446,0.914-0.915,1.333-1.395
		l0.753,0.658C48.513,47.298,48.045,47.789,47.557,48.256z M13.817,45.256c-0.394-0.539-0.769-1.104-1.116-1.681l0.856-0.516
		c0.332,0.551,0.691,1.092,1.067,1.606L13.817,45.256z M50.209,45.218L49.4,44.63c0.378-0.52,0.736-1.061,1.063-1.608l0.858,0.514
		C50.979,44.108,50.605,44.675,50.209,45.218z M11.741,41.8c-0.292-0.604-0.561-1.228-0.797-1.854l0.936-0.354
		c0.226,0.599,0.482,1.194,0.762,1.771L11.741,41.8z M52.279,41.757l-0.901-0.434c0.279-0.579,0.534-1.175,0.758-1.773l0.937,0.352
		C52.838,40.527,52.571,41.151,52.279,41.757z M10.316,38.028c-0.179-0.646-0.331-1.309-0.451-1.968l0.983-0.18
		c0.115,0.631,0.26,1.263,0.431,1.88L10.316,38.028z M53.696,37.982l-0.964-0.266c0.169-0.617,0.313-1.25,0.426-1.88l0.984,0.178
		C54.024,36.673,53.874,37.335,53.696,37.982z M9.593,34.062C9.533,33.397,9.502,32.72,9.5,32.047l1-0.002
		c0.001,0.643,0.031,1.291,0.089,1.927L9.593,34.062z M54.411,34.015l-0.996-0.088C53.471,33.291,53.5,32.643,53.5,32l0.677-0.063
		l0.323,0.055C54.5,32.672,54.47,33.351,54.411,34.015z M10.581,30.118l-0.996-0.086c0.058-0.668,0.146-1.342,0.264-2.001
		l0.984,0.176C10.721,28.837,10.636,29.479,10.581,30.118z M53.407,29.982c-0.059-0.636-0.147-1.278-0.264-1.909l0.983-0.182
		c0.122,0.66,0.215,1.333,0.277,1.999L53.407,29.982z M11.256,26.327l-0.965-0.264c0.175-0.641,0.383-1.287,0.618-1.921l0.938,0.348
		C11.622,25.097,11.423,25.714,11.256,26.327z M52.708,26.194c-0.172-0.616-0.375-1.231-0.603-1.831l0.935-0.355
		c0.238,0.628,0.451,1.272,0.631,1.917L52.708,26.194z M12.602,22.717L11.7,22.285c0.289-0.604,0.61-1.202,0.954-1.778l0.859,0.512
		C13.185,21.569,12.878,22.141,12.602,22.717z M51.339,22.594c-0.281-0.574-0.591-1.144-0.921-1.691l0.855-0.518
		c0.347,0.573,0.671,1.169,0.964,1.771L51.339,22.594z M14.573,19.406l-0.81-0.586c0.394-0.544,0.816-1.075,1.255-1.58l0.755,0.656
		C15.353,18.379,14.949,18.888,14.573,19.406z M49.349,19.297c-0.38-0.518-0.787-1.022-1.209-1.502l0.75-0.66
		c0.441,0.5,0.867,1.028,1.265,1.57L49.349,19.297z M17.102,16.499l-0.693-0.721c0.483-0.465,0.994-0.913,1.516-1.332l0.625,0.781
		C18.051,15.627,17.564,16.055,17.102,16.499z M46.801,16.406c-0.464-0.441-0.955-0.866-1.457-1.265l0.621-0.783
		c0.525,0.416,1.038,0.861,1.524,1.323L46.801,16.406z M20.107,14.086l-0.554-0.832c0.559-0.372,1.14-0.722,1.729-1.041l0.477,0.879
		C21.196,13.396,20.64,13.731,20.107,14.086z M43.781,14.013c-0.533-0.35-1.091-0.681-1.659-0.985l0.473-0.881
		c0.593,0.317,1.177,0.664,1.735,1.03L43.781,14.013z M23.492,12.249l-0.396-0.918c0.614-0.266,1.249-0.506,1.887-0.715l0.312,0.949
		C24.685,11.766,24.078,11.996,23.492,12.249z M40.383,12.196c-0.585-0.249-1.193-0.476-1.807-0.673l0.306-0.951
		c0.643,0.206,1.28,0.443,1.893,0.704L40.383,12.196z M27.151,11.048l-0.225-0.975c0.651-0.149,1.318-0.272,1.984-0.364l0.137,0.99
		C28.411,10.787,27.773,10.904,27.151,11.048z M36.715,11.02c-0.625-0.141-1.264-0.253-1.898-0.336l0.13-0.992
		c0.663,0.087,1.332,0.205,1.987,0.352L36.715,11.02z M30.966,10.523L30.92,9.525c0.358-0.018,0.7-0.028,1.082-0.025
		c0.313,0,0.625,0.006,0.936,0.019l-0.042,1c-0.314-0.014-0.634-0.024-0.948-0.019C31.618,10.5,31.292,10.509,30.966,10.523z"/>
	<circle class="st2" cx="32" cy="7.292" r="4.208"/>
	<rect x="28.75" y="53.642" class="st2" width="7.274" height="7.274"/>
	<polygon class="st2" points="7.479,28.839 3.083,36.453 11.875,36.453 	"/>
	<path class="st1" d="M32,12c-2.596,0-4.708-2.112-4.708-4.708c0-2.597,2.112-4.709,4.708-4.709s4.708,2.112,4.708,4.709
		C36.709,9.888,34.596,12,32,12z M32,3.583c-2.045,0-3.708,1.664-3.708,3.709S29.955,11,32,11s3.708-1.663,3.708-3.708
		S34.045,3.583,32,3.583z"/>
	<path class="st1" d="M36.024,61.417H28.75c-0.276,0-0.5-0.224-0.5-0.5v-7.274c0-0.276,0.224-0.5,0.5-0.5h7.274
		c0.276,0,0.5,0.224,0.5,0.5v7.274C36.524,61.193,36.301,61.417,36.024,61.417z M29.25,60.417h6.274v-6.274H29.25V60.417z"/>
	<path class="st1" d="M11.875,36.953H3.084c-0.179,0-0.344-0.096-0.433-0.25s-0.089-0.346,0-0.5l4.396-7.614
		c0.179-0.309,0.688-0.309,0.866,0l4.396,7.614c0.089,0.154,0.089,0.346,0,0.5S12.054,36.953,11.875,36.953z M3.95,35.953h7.059
		l-3.53-6.114L3.95,35.953z"/>
	<polygon class="st2" points="60.917,28.502 59.23,26.944 56.593,29.798 53.957,26.944 52.27,28.502 55.031,31.49 52.27,34.479 
		53.957,36.037 56.593,33.182 59.23,36.037 60.917,34.479 58.156,31.49 	"/>
	<path class="st1" d="M53.957,36.537c-0.125,0-0.247-0.047-0.339-0.133l-1.687-1.559c-0.203-0.188-0.215-0.504-0.028-0.706
		l2.447-2.649l-2.447-2.649c-0.188-0.202-0.175-0.519,0.028-0.706l1.687-1.559c0.098-0.09,0.215-0.131,0.359-0.133
		c0.132,0.006,0.257,0.063,0.347,0.161l2.269,2.456l2.27-2.456c0.09-0.098,0.215-0.155,0.348-0.161
		c0.128,0.002,0.261,0.043,0.359,0.133l1.687,1.559c0.203,0.188,0.215,0.504,0.028,0.706l-2.447,2.649l2.447,2.649
		c0.188,0.202,0.175,0.519-0.028,0.706l-1.687,1.559c-0.098,0.091-0.23,0.132-0.359,0.133c-0.133-0.006-0.258-0.063-0.348-0.161
		l-2.27-2.456l-2.269,2.456c-0.09,0.098-0.215,0.155-0.347,0.161C53.97,36.537,53.963,36.537,53.957,36.537z M52.977,34.45
		l0.953,0.88l2.297-2.486c0.189-0.205,0.545-0.205,0.734,0l2.297,2.486l0.952-0.88l-2.421-2.621c-0.177-0.191-0.177-0.486,0-0.678
		l2.421-2.621l-0.952-0.88l-2.297,2.486c-0.189,0.205-0.545,0.205-0.734,0l-2.297-2.486l-0.953,0.88l2.421,2.621
		c0.177,0.191,0.177,0.486,0,0.678L52.977,34.45z"/>
</g>
</svg>
